<svg id="Layer_1" enable-background="new 0 0 512 512" height="512" viewBox="0 0 512 512" width="512" xmlns="http://www.w3.org/2000/svg"><path d="m284.613 77.52h-141.944c-8.836 0-16-7.164-16-16s7.164-16 16-16h131.977l4.244-8.638c11.005-22.405 34.246-36.882 59.208-36.882h157.344c8.836 0 16 7.164 16 16s-7.164 16-16 16h-157.344c-12.853 0-24.82 7.454-30.487 18.99l-8.638 17.584c-2.689 5.476-8.259 8.946-14.36 8.946z" fill="#d3d1d1"/><path d="m264.698 192.997c-71.698 0-130.029 58.331-130.029 130.029 0 8.836 7.164 16 16 16h228.057c8.836 0 16-7.164 16-16 .001-71.698-58.33-130.029-130.028-130.029z" fill="#feeb95"/><path d="m264.698 251.837c-39.254 0-71.189 31.935-71.189 71.188 0 8.836 7.164 16 16 16h110.377c8.836 0 16-7.164 16-16 .001-39.253-31.934-71.188-71.188-71.188z" fill="#eed572"/><path d="m342.737 275.594c-71.698 0-130.029 58.331-130.029 130.029 0 8.836 7.164 16 16 16h228.057c8.836 0 16-7.164 16-16 0-71.699-58.33-130.029-130.028-130.029z" fill="#eed572"/><path d="m225.164 350.126c12.079 5.984 28.035 7.75 49.013 3.079 107.003-23.826 138.749-46.199 177.542-18.425-55.729-85.439-183.013-76.531-226.555 15.346z" fill="#fee67b"/><path d="m342.737 334.434c-39.254 0-71.189 31.935-71.189 71.188 0 8.836 7.164 16 16 16h110.377c8.836 0 16-7.164 16-16 0-39.253-31.935-71.188-71.188-71.188z" fill="#fee67b"/><path d="m173.52 275.594c-71.698 0-130.029 58.331-130.029 130.029 0 8.836 7.164 16 16 16h228.057c8.836 0 16-7.164 16-16 0-71.699-58.331-130.029-130.028-130.029z" fill="#eed572"/><path d="m173.52 334.434c-39.254 0-71.189 31.935-71.189 71.188 0 8.836 7.164 16 16 16h110.377c8.836 0 16-7.164 16-16 0-39.253-31.935-71.188-71.188-71.188z" fill="#fee67b"/><path d="m59.369 343.406c20.079 5.427 50.335 7.743 95.915 3.365 65.353-6.277 96.27-18.903 118.892-23.367-58.516-71.507-170.44-61.074-214.807 20.002z" fill="#fee67b"/><path d="m107.687 378.564c18.279 12.622 43.377 20.17 73.311 4.205 16.583-8.844 31.564-17.544 44.615-25.596-35.452-38.091-98.161-26.52-117.926 21.391z" fill="#f9e8a2"/><path d="m297.07 351.066c9.886 4.335 20.125 9.714 30.495 16.395 23.538 15.164 52.776 15.455 80.416 9.723-19.198-43.871-74.761-56.428-110.911-26.118z" fill="#f9e8a2"/><path d="m461.163 389.623h-411.442c-13.285 0-20.809 15.339-12.615 25.841l43.438 55.682c19.956 25.582 51.964 40.854 85.619 40.854h178.558c33.655 0 65.663-15.272 85.619-40.854l43.438-55.682c8.171-10.475.705-25.841-12.615-25.841z" fill="#d3d1d1"/><path d="m443.974 453.668 29.804-38.204c8.172-10.475.705-25.841-12.615-25.841h-411.442c-13.285 0-20.809 15.339-12.615 25.841l26.778 34.326c21.308-1.793 47.003-4.632 77.921-8.782 135.253-18.155 236.919-4.2 302.169 12.66z" fill="#e0e0e0"/><path d="m211.788 275.458c25.799 11.584 55.822 17.901 79.205 2.125 5.636-3.803 11.064-7.689 16.258-11.594-29.446-22.025-70.792-17.944-95.463 9.469z" fill="#fee67b"/><path d="m169.587 234.463c20.195-.571 42.956-2.604 68.548-6.619 55.302-8.677 102.592 7.848 141 33.491-42.652-78.803-149.148-91.693-209.548-26.872z" fill="#f9e8a2"/><path d="m206.074 277.718c-8.836 0-16-7.164-16-16v-199.038c0-9.128-7.426-16.554-16.554-16.554s-16.554 7.426-16.554 16.554v142.074c0 8.836-7.164 16-16 16s-16-7.164-16-16v-142.074c0-26.773 21.781-48.554 48.554-48.554s48.554 21.781 48.554 48.554v199.038c0 8.837-7.164 16-16 16z" fill="#eed572"/><path d="m494.326 421.623h-477.768c-8.836 0-16-7.164-16-16s7.164-16 16-16h477.768c8.836 0 16 7.164 16 16s-7.164 16-16 16z" fill="#e0e0e0"/><path d="m206.074 116.837c-8.836 0-16-7.164-16-16v-38.157c0-26.773 21.781-48.554 48.554-48.554s48.554 21.781 48.554 48.554v68.139c0 8.836-7.164 16-16 16s-16-7.164-16-16v-68.139c0-9.128-7.426-16.554-16.554-16.554s-16.554 7.426-16.554 16.554v38.157c0 8.836-7.164 16-16 16z" fill="#fee67b"/></svg>