<svg height="511pt" viewBox="0 -9 511.99982 511" width="511pt" xmlns="http://www.w3.org/2000/svg"><path d="m253.859375.5-11.472656 178.945312 11.472656 174.285157c97.386719 0 176.617187-79.226563 176.617187-176.613281 0-97.386719-79.230468-176.617188-176.617187-176.617188zm0 0" fill="#ff7300"/><path d="m77.242188 177.117188c0 97.386718 79.230468 176.617187 176.617187 176.617187v-353.234375c-97.386719 0-176.617187 79.230469-176.617187 176.617188zm0 0" fill="#ff9d00"/><path d="m253.859375 30.359375-9.535156 148.691406 9.535156 144.824219c80.921875 0 146.757813-65.835938 146.757813-146.757812 0-80.921876-65.832032-146.757813-146.757813-146.757813zm0 0" fill="#fdae02"/><path d="m107.101562 177.117188c0 80.921874 65.835938 146.757812 146.757813 146.757812v-293.515625c-80.921875 0-146.757813 65.835937-146.757813 146.757813zm0 0" fill="#fdcb02"/><path d="m323.652344 202.761719 46.351562-60.46875-73.035156-21.652344-43.171875-63.234375-10.617187 41.347656 10.617187 11.8125 24.558594 35.695313 41.535156 12.328125-26.359375 34.386718 1.105469 42.886719.007812.425781-40.847656-14.441406-10.617187 14.921875 10.617187 16.746094 71.785156 25.378906-1.917969-75.757812zm0 0" fill="#fddc46"/><path d="m212.945312 236.289062 1.113282-43.3125-26.359375-34.386718 41.535156-12.328125 24.5625-35.695313v-53.160156l-43.175781 63.234375-72.90625 21.636719 46.222656 60.484375-1.9375 75.496093 71.796875-24.742187v-31.667969zm0 0" fill="#fce270"/><path d="m499.199219 286.71875c-.300781-.304688-.601563-.609375-.902344-.917969-17.578125-17.894531-46.445313-17.800781-63.917969.195313l-52.332031 53.902344-15.777344 3.980468-29.195312-3.980468h-83.214844l-30.914063 72.980468 30.914063 81.277344h130.980469l117.507812-148.398438c13.984375-17.660156 12.636719-42.96875-3.148437-59.039062zm0 0" fill="#ffc186"/><path d="m92.878906 339.898438 13.285156 154.257812h147.695313v-82.863281l9.953125-13.941407-9.953125-15.917968v-41.535156zm0 0" fill="#ffd2a7"/><path d="m356.648438 360.652344c0 11.460937-9.324219 20.78125-20.78125 20.78125h-82.007813v29.859375h82.007813c27.921874 0 50.640624-22.714844 50.640624-50.640625 0-10.382813-4.460937-20.753906-4.460937-20.753906h-45.628906c11.203125.296874 20.230469 9.480468 20.230469 20.753906zm0 0" fill="#f09b59"/><path d="m0 305.035156h106.390625v189.117188h-106.390625zm0 0" fill="#4f4f4f"/></svg>